<svg xmlns="http://www.w3.org/2000/svg" xmlns:xlink="http://www.w3.org/1999/xlink" version="1.1" width="1000" height="1000" viewBox="0 0 1000 1000" xml:space="preserve">
<desc>Created with Fabric.js 3.5.0</desc>
<defs>
</defs>
<rect x="0" y="0" width="100%" height="100%" fill="rgba(255,255,255,0)"/>
<g transform="matrix(1.4205 0 0 1.4205 500.0145 500.0145)" id="697703">
<g style="" vector-effect="non-scaling-stroke">
		<g transform="matrix(1 0 0 1 0.01 0.01)">
<path style="stroke: none; stroke-width: 1; stroke-dasharray: none; stroke-linecap: butt; stroke-dashoffset: 0; stroke-linejoin: miter; stroke-miterlimit: 4; is-custom-font: none; font-file-url: none; fill: rgb(44,62,80); fill-rule: nonzero; opacity: 1;" transform=" translate(-320.01, -320.01)" d="M 638.02 320.01 C 638.02 495.53 495.53 638.02 320.01 638.02 C 144.5 638.02 2 495.53 2 320.01 C 2 144.5 144.5 2 320.01 2 C 495.53 2 638.02 144.5 638.02 320.01 Z" stroke-linecap="round"/>
</g>
		<g transform="matrix(1 0 0 1 -62.085 34.9)">
<path style="stroke: none; stroke-width: 1; stroke-dasharray: none; stroke-linecap: butt; stroke-dashoffset: 0; stroke-linejoin: miter; stroke-miterlimit: 4; is-custom-font: none; font-file-url: none; fill: rgb(236,240,241); fill-rule: nonzero; opacity: 1;" transform=" translate(-257.915, -354.9)" d="M 133.89 348.43 L 185.03 534.51 L 427.97 428.18 L 427.97 388.67 L 205.67 477.03 L 162.25 331.19 L 119.58 175.29 L 87.86 189.65 L 133.89 348.43 Z" stroke-linecap="round"/>
</g>
		<g transform="matrix(1 0 0 1 -17.375 55.15)">
<path style="stroke: none; stroke-width: 1; stroke-dasharray: none; stroke-linecap: butt; stroke-dashoffset: 0; stroke-linejoin: miter; stroke-miterlimit: 4; is-custom-font: none; font-file-url: none; fill: rgb(236,240,241); fill-rule: nonzero; opacity: 1;" transform=" translate(-302.625, -375.15)" d="M 245.92 387.95 L 271.48 383.86 L 297.81 378.88 L 323.94 373.05 L 342.67 367 C 346.78 365.11 349.34 363.94 350.37 363.47 C 363.56 357.42 375.4 348.79 385.18 338.08 C 385.28 337.96 385.53 337.69 385.94 337.24 L 392.03 359.97 C 391.52 360.44 391.2 360.73 391.07 360.85 C 380.86 370.24 369.23 377.95 356.6 383.71 C 354.78 384.54 356.67 383.68 351.93 385.84 C 351.93 385.84 342.88 389.31 342.88 389.31 C 340.81 389.96 335.63 391.59 327.35 394.2 L 302.28 400.24 L 277 405.42 L 251.89 409.34 L 219.08 413.06 L 213.22 390.15 L 245.92 387.95 Z" stroke-linecap="round"/>
</g>
		<g transform="matrix(1 0 0 1 218.25 -85.89)">
<path style="stroke: none; stroke-width: 1; stroke-dasharray: none; stroke-linecap: butt; stroke-dashoffset: 0; stroke-linejoin: miter; stroke-miterlimit: 4; is-custom-font: none; font-file-url: none; fill: rgb(236,240,241); fill-rule: nonzero; opacity: 1;" transform=" translate(-538.25, -234.11)" d="M 532.89 249.04 L 549.92 219.18 L 526.58 224.58 L 532.89 249.04 Z" stroke-linecap="round"/>
</g>
		<g transform="matrix(1 0 0 1 76.5 23.31)">
<path style="stroke: none; stroke-width: 1; stroke-dasharray: none; stroke-linecap: butt; stroke-dashoffset: 0; stroke-linejoin: miter; stroke-miterlimit: 4; is-custom-font: none; font-file-url: none; fill: rgb(236,240,241); fill-rule: nonzero; opacity: 1;" transform=" translate(-396.5, -343.31)" d="M 391.99 360.03 L 407.33 326.59 L 385.67 337.46 L 391.99 360.03 Z" stroke-linecap="round"/>
</g>
		<g transform="matrix(1 0 0 1 45.405 -32.01)">
<path style="stroke: none; stroke-width: 1; stroke-dasharray: none; stroke-linecap: butt; stroke-dashoffset: 0; stroke-linejoin: miter; stroke-miterlimit: 4; is-custom-font: none; font-file-url: none; fill: rgb(236,240,241); fill-rule: nonzero; opacity: 1;" transform=" translate(-365.405, -287.99)" d="M 260.6 316.35 L 304.47 305.96 L 356.01 292.81 L 403.58 279.67 L 437.06 269.97 L 470.74 257.61 C 485.02 250.48 493.94 246.02 497.51 244.23 C 499.51 243.23 501.43 242.09 503.27 240.81 C 506.39 238.64 514.19 233.21 526.68 224.51 L 532.99 249.05 C 520.62 255.66 512.89 259.79 509.8 261.44 C 509.8 261.44 506.5 263.05 506.5 263.05 C 502.32 264.89 491.87 269.49 475.14 276.86 C 458.04 282.72 447.35 286.38 443.08 287.84 C 443.08 287.84 440.71 288.61 440.71 288.61 C 435.9 290.1 423.86 293.81 404.59 299.75 L 359.47 312.62 L 310.06 326.38 L 266.25 337.53 L 203.95 351.47 L 197.82 327.51 L 260.6 316.35 Z" stroke-linecap="round"/>
</g>
		<g transform="matrix(1 0 0 1 -66.8 -134.925)">
<path style="stroke: none; stroke-width: 1; stroke-dasharray: none; stroke-linecap: butt; stroke-dashoffset: 0; stroke-linejoin: miter; stroke-miterlimit: 4; is-custom-font: none; font-file-url: none; fill: rgb(236,240,241); fill-rule: nonzero; opacity: 1;" transform=" translate(-253.2, -185.0749)" d="M 199.26 209.2 L 222.71 197.05 L 247.23 185.18 L 271.99 174.16 L 290.65 167.83 C 294.84 166.94 297.46 166.38 298.51 166.16 C 312.71 163.16 327.37 163.14 341.58 166.1 C 341.61 166.1 341.68 166.12 341.8 166.14 C 338.74 154.8 336.82 147.7 336.06 144.87 C 335.98 144.58 335.74 144.36 335.45 144.31 C 331.26 143.65 335.34 144.3 335.2 144.27 C 321.51 142.09 307.54 142.46 293.99 145.35 C 292.13 145.75 294.42 145.26 289.4 146.33 C 289.4 146.33 280.06 148.95 280.06 148.95 C 278.01 149.66 272.87 151.45 264.65 154.31 L 240.68 164.52 L 216.94 175.57 L 193.96 187.59 L 164.6 204.46 L 170.73 227.28 L 199.26 209.2 Z" stroke-linecap="round"/>
</g>
		<g transform="matrix(1 0 0 1 201.25 -157.275)">
<path style="stroke: none; stroke-width: 1; stroke-dasharray: none; stroke-linecap: butt; stroke-dashoffset: 0; stroke-linejoin: miter; stroke-miterlimit: 4; is-custom-font: none; font-file-url: none; fill: rgb(236,240,241); fill-rule: nonzero; opacity: 1;" transform=" translate(-521.25, -162.725)" d="M 506.6 150.59 L 535.9 164.41 L 513.07 174.86 L 506.6 150.59 Z" stroke-linecap="round"/>
</g>
		<g transform="matrix(1 0 0 1 30.145 -164.775)">
<path style="stroke: none; stroke-width: 1; stroke-dasharray: none; stroke-linecap: butt; stroke-dashoffset: 0; stroke-linejoin: miter; stroke-miterlimit: 4; is-custom-font: none; font-file-url: none; fill: rgb(236,240,241); fill-rule: nonzero; opacity: 1;" transform=" translate(-350.145, -155.225)" d="M 335.72 144.4 L 364.57 162.57 L 341.56 166.05 L 335.72 144.4 Z" stroke-linecap="round"/>
</g>
		<g transform="matrix(1 0 0 1 27.15 -100.17)">
<path style="stroke: none; stroke-width: 1; stroke-dasharray: none; stroke-linecap: butt; stroke-dashoffset: 0; stroke-linejoin: miter; stroke-miterlimit: 4; is-custom-font: none; font-file-url: none; fill: rgb(236,240,241); fill-rule: nonzero; opacity: 1;" transform=" translate(-347.15, -219.83)" d="M 245.48 260.13 L 287.35 242.11 L 337 221.75 L 383.3 203.79 L 416.11 191.53 L 450.36 181.38 C 465.77 178.68 475.4 176.99 479.25 176.32 C 479.25 176.32 485.9 175.62 485.9 175.62 C 489.56 175.5 498.72 175.18 513.36 174.67 L 506.79 150.63 C 493.23 152.62 484.75 153.86 481.36 154.35 C 481.36 154.35 477.76 155.03 477.76 155.03 C 473.36 156.03 462.36 158.53 444.77 162.53 C 427.58 168.04 416.83 171.47 412.53 172.85 C 412.53 172.85 410.18 173.64 410.18 173.64 C 405.41 175.33 393.51 179.55 374.45 186.3 L 330.34 202.99 L 282.19 221.55 L 240 238.89 L 180.94 265.16 L 187.36 289.03 L 245.48 260.13 Z" stroke-linecap="round"/>
</g>
		<g transform="matrix(1 0 0 1 188.405 -157.58)">
<path style="stroke: none; stroke-width: 1; stroke-dasharray: none; stroke-linecap: butt; stroke-dashoffset: 0; stroke-linejoin: miter; stroke-miterlimit: 4; is-custom-font: none; font-file-url: none; fill: rgb(236,240,241); fill-rule: nonzero; opacity: 1;" transform=" translate(-508.405, -162.42)" d="M 506.6 152.07 L 513.82 154.96 L 513.82 172.77 L 502.99 172.77 L 506.6 152.07 Z" stroke-linecap="round"/>
</g>
		<g transform="matrix(1 0 0 1 208.795 -84.3)">
<path style="stroke: none; stroke-width: 1; stroke-dasharray: none; stroke-linecap: butt; stroke-dashoffset: 0; stroke-linejoin: miter; stroke-miterlimit: 4; is-custom-font: none; font-file-url: none; fill: rgb(236,240,241); fill-rule: nonzero; opacity: 1;" transform=" translate(-528.795, -235.7)" d="M 526.99 225.35 L 534.21 228.24 L 534.21 246.05 L 523.38 246.05 L 526.99 225.35 Z" stroke-linecap="round"/>
</g>
		<g transform="matrix(1 0 0 1 16.495 -166.3)">
<path style="stroke: none; stroke-width: 1; stroke-dasharray: none; stroke-linecap: butt; stroke-dashoffset: 0; stroke-linejoin: miter; stroke-miterlimit: 4; is-custom-font: none; font-file-url: none; fill: rgb(236,240,241); fill-rule: nonzero; opacity: 1;" transform=" translate(-336.495, -153.7)" d="M 346.22 161.57 L 346.88 153.82 L 330.96 145.83 L 326.11 155.51 L 346.22 161.57 Z" stroke-linecap="round"/>
</g>
		<g transform="matrix(1 0 0 1 20.55 -162.445)">
<path style="stroke: none; stroke-width: 1; stroke-dasharray: none; stroke-linecap: butt; stroke-dashoffset: 0; stroke-linejoin: miter; stroke-miterlimit: 4; is-custom-font: none; font-file-url: none; fill: rgb(236,240,241); fill-rule: nonzero; opacity: 1;" transform=" translate(-340.55, -157.555)" d="M 336.82 151.42 L 344.28 151.42 L 344.28 163.69 L 336.82 163.69 L 336.82 151.42 Z" stroke-linecap="round"/>
</g>
		<g transform="matrix(1 0 0 1 68.375 28.305)">
<path style="stroke: none; stroke-width: 1; stroke-dasharray: none; stroke-linecap: butt; stroke-dashoffset: 0; stroke-linejoin: miter; stroke-miterlimit: 4; is-custom-font: none; font-file-url: none; fill: rgb(236,240,241); fill-rule: nonzero; opacity: 1;" transform=" translate(-388.375, -348.305)" d="M 386.78 338.13 L 397.89 343.07 L 391.08 358.48 L 378.86 355.95 L 386.78 338.13 Z" stroke-linecap="round"/>
</g>
		<g transform="matrix(1 0 0 1 68.855 36.315)">
<path style="stroke: none; stroke-width: 1; stroke-dasharray: none; stroke-linecap: butt; stroke-dashoffset: 0; stroke-linejoin: miter; stroke-miterlimit: 4; is-custom-font: none; font-file-url: none; fill: rgb(236,240,241); fill-rule: nonzero; opacity: 1;" transform=" translate(-388.855, -356.315)" d="M 385.97 353.5 L 391.74 353.5 L 391.74 359.13 L 385.97 359.13 L 385.97 353.5 Z" stroke-linecap="round"/>
</g>
</g>
</g>
</svg>