<?xml version="1.0" encoding="UTF-8" standalone="no"?>
<!DOCTYPE svg PUBLIC "-//W3C//DTD SVG 1.1//EN" "http://www.w3.org/Graphics/SVG/1.1/DTD/svg11.dtd">
<svg version="1.1" xmlns="http://www.w3.org/2000/svg" xmlns:xlink="http://www.w3.org/1999/xlink" preserveAspectRatio="xMidYMid meet" viewBox="0 0 640 640" width="640" height="640"><defs><path d="M638.02 320.01C638.02 495.53 495.53 638.02 320.01 638.02C144.5 638.02 2 495.53 2 320.01C2 144.5 144.5 2 320.01 2C495.53 2 638.02 144.5 638.02 320.01Z" id="fxDyyOar3"></path><path d="M133.89 348.43L185.03 534.51L427.97 428.18L427.97 388.67L205.67 477.03L162.25 331.19L119.58 175.29L87.86 189.65L133.89 348.43Z" id="awgePWbpf"></path><path d="M245.92 387.95L271.48 383.86L297.81 378.88L323.94 373.05L342.67 367C346.78 365.11 349.34 363.94 350.37 363.47C363.56 357.42 375.4 348.79 385.18 338.08C385.28 337.96 385.53 337.69 385.94 337.24L392.03 359.97C391.52 360.44 391.2 360.73 391.07 360.85C380.86 370.24 369.23 377.95 356.6 383.71C354.78 384.54 356.67 383.68 351.93 385.84C351.93 385.84 342.88 389.31 342.88 389.31C340.81 389.96 335.63 391.59 327.35 394.2L302.28 400.24L277 405.42L251.89 409.34L219.08 413.06L213.22 390.15L245.92 387.95Z" id="aCBX88Mk6"></path><path d="M532.89 249.04L549.92 219.18L526.58 224.58L532.89 249.04Z" id="b1RbzoMeoh"></path><path d="M391.99 360.03L407.33 326.59L385.67 337.46L391.99 360.03Z" id="axY64pvW4"></path><path d="M260.6 316.35L304.47 305.96L356.01 292.81L403.58 279.67L437.06 269.97L470.74 257.61C485.02 250.48 493.94 246.02 497.51 244.23C499.51 243.23 501.43 242.09 503.27 240.81C506.39 238.64 514.19 233.21 526.68 224.51L532.99 249.05C520.62 255.66 512.89 259.79 509.8 261.44C509.8 261.44 506.5 263.05 506.5 263.05C502.32 264.89 491.87 269.49 475.14 276.86C458.04 282.72 447.35 286.38 443.08 287.84C443.08 287.84 440.71 288.61 440.71 288.61C435.9 290.1 423.86 293.81 404.59 299.75L359.47 312.62L310.06 326.38L266.25 337.53L203.95 351.47L197.82 327.51L260.6 316.35Z" id="cYWAlCwrw"></path><path d="M199.26 209.2L222.71 197.05L247.23 185.18L271.99 174.16L290.65 167.83C294.84 166.94 297.46 166.38 298.51 166.16C312.71 163.16 327.37 163.14 341.58 166.1C341.61 166.1 341.68 166.12 341.8 166.14C338.74 154.8 336.82 147.7 336.06 144.87C335.98 144.58 335.74 144.36 335.45 144.31C331.26 143.65 335.34 144.3 335.2 144.27C321.51 142.09 307.54 142.46 293.99 145.35C292.13 145.75 294.42 145.26 289.4 146.33C289.4 146.33 280.06 148.95 280.06 148.95C278.01 149.66 272.87 151.45 264.65 154.31L240.68 164.52L216.94 175.57L193.96 187.59L164.6 204.46L170.73 227.28L199.26 209.2Z" id="b487Rw3MMV"></path><path d="M506.6 150.59L535.9 164.41L513.07 174.86L506.6 150.59Z" id="fvriGLlVt"></path><path d="M335.72 144.4L364.57 162.57L341.56 166.05L335.72 144.4Z" id="b1aIYNOVj7"></path><path d="M245.48 260.13L287.35 242.11L337 221.75L383.3 203.79L416.11 191.53L450.36 181.38C465.77 178.68 475.4 176.99 479.25 176.32C479.25 176.32 485.9 175.62 485.9 175.62C489.56 175.5 498.72 175.18 513.36 174.67L506.79 150.63C493.23 152.62 484.75 153.86 481.36 154.35C481.36 154.35 477.76 155.03 477.76 155.03C473.36 156.03 462.36 158.53 444.77 162.53C427.58 168.04 416.83 171.47 412.53 172.85C412.53 172.85 410.18 173.64 410.18 173.64C405.41 175.33 393.51 179.55 374.45 186.3L330.34 202.99L282.19 221.55L240 238.89L180.94 265.16L187.36 289.03L245.48 260.13Z" id="c4LN8LtiaQ"></path><path d="M506.6 152.07L513.82 154.96L513.82 172.77L502.99 172.77L506.6 152.07Z" id="bhGN5USPb"></path><path d="M526.99 225.35L534.21 228.24L534.21 246.05L523.38 246.05L526.99 225.35Z" id="b1DV9Xn27q"></path><path d="M346.22 161.57L346.88 153.82L330.96 145.83L326.11 155.51L346.22 161.57Z" id="h7tg0X7J7K"></path><path d="M336.82 151.42L344.28 151.42L344.28 163.69L336.82 163.69L336.82 151.42Z" id="a2nnp41DT"></path><path d="M386.78 338.13L397.89 343.07L391.08 358.48L378.86 355.95L386.78 338.13Z" id="aEhEiTK0C"></path><path d="M385.97 353.5L391.74 353.5L391.74 359.13L385.97 359.13L385.97 353.5Z" id="crJuj0GFC"></path></defs><g><g><g><use xlink:href="#fxDyyOar3" opacity="1" fill="#3498db" fill-opacity="1"></use></g><g><g><g><use xlink:href="#awgePWbpf" opacity="1" fill="#ecf0f1" fill-opacity="1"></use></g><g><use xlink:href="#aCBX88Mk6" opacity="1" fill="#ecf0f1" fill-opacity="1"></use></g><g><use xlink:href="#b1RbzoMeoh" opacity="1" fill="#ecf0f1" fill-opacity="1"></use></g><g><use xlink:href="#axY64pvW4" opacity="1" fill="#ecf0f1" fill-opacity="1"></use></g><g><use xlink:href="#cYWAlCwrw" opacity="1" fill="#ecf0f1" fill-opacity="1"></use></g><g><use xlink:href="#b487Rw3MMV" opacity="1" fill="#ecf0f1" fill-opacity="1"></use></g><g><use xlink:href="#fvriGLlVt" opacity="1" fill="#ecf0f1" fill-opacity="1"></use></g><g><use xlink:href="#b1aIYNOVj7" opacity="1" fill="#ecf0f1" fill-opacity="1"></use></g><g><use xlink:href="#c4LN8LtiaQ" opacity="1" fill="#ecf0f1" fill-opacity="1"></use></g></g><g><use xlink:href="#bhGN5USPb" opacity="1" fill="#ecf0f1" fill-opacity="1"></use></g><g><use xlink:href="#b1DV9Xn27q" opacity="1" fill="#ecf0f1" fill-opacity="1"></use></g><g><use xlink:href="#h7tg0X7J7K" opacity="1" fill="#ecf0f1" fill-opacity="1"></use></g><g><use xlink:href="#a2nnp41DT" opacity="1" fill="#ecf0f1" fill-opacity="1"></use></g><g><use xlink:href="#aEhEiTK0C" opacity="1" fill="#ecf0f1" fill-opacity="1"></use></g><g><use xlink:href="#crJuj0GFC" opacity="1" fill="#ecf0f1" fill-opacity="1"></use></g></g></g></g></svg>